<svg xmlns="http://www.w3.org/2000/svg" viewBox="0 0 1090 714" role="img" aria-hidden="true"><path d="M1044 148L1037 139L1030 136L980 128L957 120L949 113L939 92L929 78L914 65L898 56L876 48L847 42L819 40L791 42L754 52L733 64L712 81L700 86L683 88L658 85L632 85L616 90L601 103L595 119L596 132L602 144L613 156L632 170L658 184L675 190L694 194L686 206L672 220L646 237L611 250L575 256L527 256L461 249L416 247L378 250L350 257L337 257L309 250L285 241L247 221L212 195L193 176L181 161L165 134L152 94L148 90L141 89L133 94L123 107L115 124L111 139L111 172L114 185L120 199L111 200L107 204L106 210L116 234L134 254L157 268L154 272L154 276L159 283L185 298L202 304L227 309L272 310L259 328L246 353L239 373L233 403L225 419L216 428L204 434L192 436L161 434L152 436L143 441L95 506L86 515L71 519L60 525L47 539L43 547L40 560L42 578L45 584L53 592L61 596L69 598L83 598L92 596L106 590L126 576L184 520L188 518L206 516L249 523L205 585L198 592L188 594L175 601L164 613L157 629L157 648L161 658L167 665L182 672L191 673L205 671L221 664L240 650L268 621L294 588L308 575L326 569L353 567L384 561L401 555L431 538L460 510L471 494L483 469L485 468L551 492L590 501L619 504L640 504L682 498L693 512L709 526L729 533L749 533L758 540L808 562L837 578L851 594L869 632L884 646L896 652L909 655L927 653L939 644L944 635L946 628L945 607L938 591L926 573L908 538L901 528L886 514L922 514L933 519L960 541L976 550L997 555L1013 555L1028 552L1036 548L1043 541L1047 534L1049 525L1047 508L1043 499L1031 486L977 449L959 440L942 435L927 433L844 431L809 427L807 425L819 402L827 373L831 313L841 289L850 279L857 275L873 277L902 289L935 298L955 298L966 295L975 290L981 284L986 275L987 260L980 246L972 238L1004 231L1019 222L1029 212L1038 197L1044 178ZM773 530L860 516L872 523L893 543L913 581L927 602L931 614L931 626L929 632L920 639L907 639L896 635L881 622L866 589L849 568L831 556ZM469 464L459 484L444 505L430 519L412 532L380 546L349 552L323 554L308 558L295 565L283 577L249 619L220 646L206 654L196 657L183 656L173 648L171 635L177 621L186 612L208 604L216 596L259 535L269 526L273 524L314 521L343 512L364 501L383 487L415 454L442 456L464 461ZM907 227L909 226L925 232L946 236L969 257L958 257L940 251L922 241ZM137 114L140 111L151 140L167 168L182 187L203 208L226 226L259 246L287 259L317 268L319 270L303 280L290 291L271 294L235 294L220 292L197 286L178 277L178 275L186 270L186 263L182 259L160 252L144 242L132 230L126 220L128 219L141 222L146 218L146 211L138 201L131 187L125 163L127 137ZM1027 181L1021 197L1008 211L997 217L982 221L958 222L942 220L917 213L891 200L884 202L881 206L884 219L893 234L906 248L918 257L933 265L968 275L964 279L956 282L934 282L912 276L874 261L864 259L850 261L840 267L833 274L825 286L819 300L815 317L814 353L811 376L805 396L793 417L784 402L775 377L772 374L767 373L761 378L763 390L777 421L785 432L798 440L836 446L930 449L949 453L970 463L1001 486L1017 495L1029 506L1033 514L1034 524L1031 532L1024 537L1020 536L1018 523L1008 512L1002 513L999 517L999 520L1006 531L1006 538L993 539L980 535L971 530L940 505L926 499L914 497L872 499L751 517L728 517L713 510L703 500L668 454L662 450L657 451L654 454L653 459L670 482L669 485L642 488L617 488L575 482L532 469L472 447L452 442L428 438L449 414L448 406L441 403L431 411L400 448L373 475L355 488L338 497L314 505L294 508L252 507L213 501L187 502L179 505L168 513L131 551L101 575L89 581L71 583L63 580L56 571L56 557L61 546L73 535L95 528L107 516L152 454L160 450L199 451L208 449L226 440L238 428L248 407L252 384L258 365L270 340L290 313L307 297L326 284L356 271L393 264L433 263L531 272L571 272L597 269L623 263L649 253L673 239L698 216L713 193L733 189L756 177L770 166L807 126L806 118L803 116L797 116L758 156L743 167L719 177L692 178L670 172L647 161L625 146L615 136L610 125L611 117L620 106L626 103L641 100L671 103L696 103L711 99L721 94L748 73L773 62L809 56L828 56L854 59L883 67L908 80L922 94L939 125L952 135L977 143L1004 147L1006 149L1004 153L1004 163L1008 171L1015 177ZM891 118L886 120L881 125L879 137L882 143L887 147L898 148L906 143L909 137L909 130L907 125L902 120Z" fill="#000" fill-rule="evenodd"/></svg>
